<?xml version="1.0" encoding="utf-8"?>
<!-- Generator: Adobe Illustrator 22.0.1, SVG Export Plug-In . SVG Version: 6.00 Build 0)  -->
<svg version="1.1" id="Calque_1" xmlns="http://www.w3.org/2000/svg" xmlns:xlink="http://www.w3.org/1999/xlink" x="0px" y="0px"
	 viewBox="0 0 156.9 51.5" style="enable-background:new 0 0 156.9 51.5;" xml:space="preserve">
<g>
	<path d="M63,4.6c0,0.3-0.6,0.1-0.9,0.2c-1.8,0.1-3.6,0.1-5.3,0.1c-1.2,0.4-2.4,0.6-3.6,0.7c-1.1,0.1-2.2,0.3-3.3,0.6
		c-0.2,0.1-0.3-0.1-0.3-0.3c-0.1-0.1-0.2-0.1-0.2-0.2C48.6,5.8,47.8,5.6,47,6c-0.3,0.2-0.7,0.2-1,0.2c-1.5,0.1-2.8,0.7-4.2,1
		c-0.6,0.2-1.1,0.3-1.7,0.5c-0.3,0.1-0.7,0.1-0.6,0.5c0.1,0.3,0.5,0.2,0.7,0.2c0.1,0,0.2,0,0.4-0.1c0.6-0.5,1.3-0.6,2.1-0.6
		c1.8-0.7,3.7-1,5.6-1.5c0.3-0.1,0.6-0.1,0.9-0.1c-0.5,0.2-0.9,0.9-1.5,0.6c-0.2-0.1-0.4,0.1-0.6,0.1c-0.7,0.2-1.2,1-2.2,0.6
		c-0.4-0.1-1.1,0.5-1.7,0.8c-0.3,0.2-0.3,0-0.5-0.2c-0.1,0.2-0.1,0.5-0.5,0.5s-0.7,0.2-1.1,0.3c-0.4,0.2-0.6,0-0.9-0.2
		c-0.3,0.2-0.5,0.5-0.7,0.7c-0.6,0.7-0.6,1.7-0.9,2.5c-1,3-1.5,6.1-2.8,9.1c-0.5,1.1-0.2,2.5-0.8,3.6c-0.5,0.7-0.6,1.7-1,2.4
		c-0.5,1.8-1,3.6-1.7,5.3c-0.2,0.7-0.7,1.3-0.7,2.1c0,0.5-1.2,1.8-1,2.7c-0.2,1.1-0.8,2.1-1.2,3.2c-0.1,0.2-0.2,0.5-0.3,0.6
		c-0.2,0.9-0.5,1.8-0.9,2.7c-0.5,1-0.6,2.1-1,3.2c-0.3,0.9-0.7,1.8-0.9,2.8c-0.1,0.2-0.3,0.4-0.5,0.7c-0.2-0.6,0-1.2,0.1-1.7
		c0.2-2.4,0.9-4.7,1.4-7.1c0.2-0.6,0.1-1.1,0.5-1.7c0.1-0.5,0.2-1,0.5-1.5c-0.1-0.5,0.1-1.1,0.3-1.5c0.2-1.3,0.7-2.6,1.1-3.8
		c0.1-0.9,0.5-1.7,0.8-2.5c0.1-0.5,0.1-1,0.5-1.4c0.1-0.2-0.1-0.5,0.2-0.7c0.7-2.2,1.4-4.4,2.2-6.6c0.3-0.9,0.6-1.8,0.7-2.7
		c0.1-0.2,0.1-0.4,0.3-0.5c-0.2-0.5,0-0.7,0.2-1.1c0.1-0.3,0.1-0.6,0.3-0.9c0.2-1.1,0.5-2.2,0.9-3.3c0.4-1,0.6-2.2,0.9-3.3
		c-0.7,0.1-1.4,0.3-2.1,0.4c-0.3,0.2-0.5,0.3-0.8,0.5c-1-0.7-0.8,0.7-1.8,0.4c-0.3,0-0.5,0.2-0.7,0.1c-0.5,0.7-1.2,0.7-2,0.9
		c-0.4,0.2-0.8,0.2-1.2,0.3c-0.4,0.2-1,0.6-1.3,0.5c-0.6-0.3-0.5,0.8-1,0.4c-2.6,1.2-5.3,2.4-8.3,3.4c-0.7,0.7-1.7,1-2.5,1.4
		c-1.8,0.9-3.6,1.8-5.3,2.8c-1.1,0.7-2.2,1.3-3.6,1.5c-0.9,0.2-2-0.8-1.9-1.7c0.1-0.3,0.2-0.6,0.6-0.7c2-0.6,3.8-1.5,5.7-2.4
		c2.2-1,4.5-2,6.7-3c0.2-0.1,0.3-0.1,0.5-0.1c3.2-1.5,6.4-2.8,9.7-3.9c1.8-0.6,3.7-1.1,5.5-1.7c1.2-0.3,2.3-0.9,3.6-1.1
		c0.4-0.1,0.9-0.1,1.1-0.6c0.2-0.5,0.5-0.9,1-0.3c0.3,0.3,0.6,0.1,1,0.1c0.1,0,0.1,0,0.2,0c0.1,0,0.2-0.1,0.3,0c0.1,0,0.2,0,0.3-0.1
		c0.2-0.2,1-0.1,1.1-0.2c0.9-0.2,1.7-0.5,2.6-0.7c0.9-0.2,1.8-0.3,2.6-0.7c0.9-0.3,1.8-0.4,2.6-0.6c1-0.2,2.2-0.3,3.3-0.2
		c0.4-0.3,0.9-0.1,1.3-0.2C54,4.4,54,4.5,54,4.6c-0.1,0.1-0.2,0.1-0.4,0.2c-0.3,0.2-0.7-0.2-1,0.2c0.4-0.1,0.9,0.2,1.3-0.2
		c0.9,0,1.7,0.1,2.6-0.2c0.2,0,0.3,0,0.5,0c-0.5-0.4-1.1,0-1.7-0.2l-0.1-0.1c0.9-0.2,1.8,0.1,2.6,0c0.8-0.2,1.6-0.1,2.4-0.1
		c0,0.2-0.2,0.1-0.3,0.3c0.4,0,0.8,0,1.1,0c-0.1-0.3-0.5-0.1-0.6-0.3c0.2,0,0.5,0,0.7,0c0.2-0.2,0.5-0.2,0.8,0
		c0.1,0.1,0.2,0.1,0.2,0.1C62.4,4.6,63,4.1,63,4.6z M16.7,16c-0.3-0.1-0.6,0.1-0.9,0.3c-0.2-0.1-1,0.3-1.1,0.6
		C15.3,16.7,16.1,16.9,16.7,16z M37.2,8.7c-0.1-0.3-0.5-0.1-0.7-0.2c-0.1,0.1-0.2,0.3-0.2,0.3c-1.6,0.3-3.1,0.9-4.6,1.3
		c-3,0.8-6,2-8.9,3.1c-1.5,0.6-3,1.3-4.6,2c0,0.1,0,0.1,0,0.1c-0.5-0.1-0.7,0.3-1.3,0.5c0.5,0.2,1,0.2,2-0.3c0.8-0.3,1.5-0.9,2.5-1
		c0-0.1,0.1-0.2,0.1-0.2c1.4-0.6,2.9-1.1,4.3-1.6c0.1-0.1,0.3-0.2,0.5-0.3c0.5-0.1,1-0.1,1.5-0.3c0.4-0.3,1-0.7,1.6-0.3
		c0.1,0,0.2,0.3,0.3,0c0.3-0.5,0.8-0.6,1.3-0.9c0.5-0.3,0.5,0.1,0.5,0.4c0.3,0,0.7,0.2,0.5-0.4c-0.1-0.2,0.1-0.4,0.3-0.4
		c0.7,0,1.4-0.4,2.1-0.5c0.5-0.1,0.9-0.3,1.4-0.3c0.3-0.1,0.7-0.2,1-0.3C36.9,9.1,37.3,9.1,37.2,8.7z M30.2,34.4
		c-0.1,0.2-0.2,0.3-0.3,0.5c0.2,0,0.4,0.1,0.5-0.1C30.5,34.7,30.3,34.5,30.2,34.4z M31.3,29.8c0,0.3,0,0.6,0,0.8
		C31.5,30.4,31.5,30.1,31.3,29.8z M33.9,22.2c-0.1,0-0.2,0.2-0.1,0.4c0.1-0.1,0.1-0.1,0.1-0.2C34,22.3,34.2,22.2,33.9,22.2z
		 M50.2,5.2c-0.2,0-0.5,0-0.7,0.1c0.2,0.2,0.3,0.1,0.5,0.1C50.1,5.4,50.2,5.4,50.2,5.2z M51,5.4C51.1,5.4,51,5.3,51,5.4
		c-0.2-0.1-0.3,0-0.5,0c0.1,0.1,0.1,0.2,0.2,0.3c0.1,0,0.1,0,0.1-0.1C50.9,5.5,51,5.5,51,5.4L51,5.4z M53,5.3
		c-0.2-0.2-0.4-0.2-0.5-0.3c-0.5,0-0.9-0.2-1.3,0.3c0,0,0,0-0.1,0.1c0,0,0,0.1,0.1,0.1C51.8,5.4,52.4,5,53,5.3z M55.2,4.3L55.2,4.3
		c-0.1,0.3-0.2,0.3-0.3,0.2c-0.1,0-0.1-0.2-0.1-0.2C55,4.2,55.1,4.3,55.2,4.3z"/>
</g>
<path d="M47,26.9c0,0,0.1,0.3-0.6,0.7c-0.2,0.2-2,1.1-2.1,1c-0.5,0.6-0.9,1.2-1.2,1.9c-0.8,1.4-1.8,2.7-3.5,3.2
	c-2,0.5-3.6-0.8-3.7-2.8c-0.1-2.3,0.5-4.4,2.3-6c0.7-0.6,1.3-1.4,2.2-1.8c0.2-0.1,0.2-0.5,0.3-0.8l0.6-0.9c0.7-0.2,1.4-0.3,2.1,0.2
	c0.5,0.3,0.9,0.6,1,1.2c0.3,1.5,0.4,2.9,0.1,4.4c-0.1,0.2-0.3,0.3,0,0.5c0.2,0.1,1.3-0.1,1.5-0.2C46.4,27.4,47,26.9,47,26.9z
	 M42.4,28.8c-1-0.7-2.2-1.3-2.1-2.8c-0.5,0.1-0.6,0.5-0.8,0.7c-1,1.4-2,2.8-2,4.6c0.1,0.8,0.4,1.1,1.1,0.9
	C40.5,31.6,41.6,30.3,42.4,28.8z M41.4,26.1c0.7-0.6,1-1.1,1.2-1.7C41.4,24.3,41.8,25.3,41.4,26.1z M43.4,24.4
	c-0.3,0.9-0.9,1.4-1.4,1.9c-0.3,0.2-0.3,0.5-0.1,0.8s0.5,0.6,0.9,0.6s0.3-0.4,0.5-0.7C43.5,26.2,43.5,25.4,43.4,24.4z M42.8,23.2
	c0.2,0.1,0.4,0.5,0.6,0.7c0.2-0.4-0.1-0.7-0.1-1.1c0.1-0.2-0.2-0.3-0.4-0.3s-0.2,0.2-0.2,0.3C42.6,23,42.5,23.1,42.8,23.2z
	 M46.7,35.3c-1-0.1-1.8-1.3-2-2.4c-0.1-0.9-0.2-1.3,0.1-2.8c0.2-1.4,1.5-4,2-4.7c0.7-1.1,1.3-2.4,2.1-3.4c0.7-1,2-1.4,3.1-1
	c0.9,0.3,0.9,1.1,1,1.8c0.2,1.3-0.6,2.5-1,3.6c-0.1,0.2-0.6,0.5-1,0.5c-0.6-0.1-0.7-0.5-0.5-1c0.5-0.9,0.8-1.7,1-2.7
	c0.1-0.3-0.2-0.6-0.2-1.1c-0.4,1-1.3,1.4-1.8,2.2c-0.5,0.7-0.7,1.4-1.1,2.1c-0.7,1.4-1.4,2.9-1.8,4.4c-0.2,1-0.2,1.9-0.1,2.8
	c0.1,0.4,0.3,0.5,0.7,0.4c1.4-0.3,2.2-1.2,3.2-2.1c0.8-0.6,4.6-4.9,4.8-4.2c0.2,0.6-3,4.5-4.2,5.6C49.8,34.2,47.9,35.4,46.7,35.3z
	 M68.6,24.9c0,0,0.3,0.7-0.6,1.5c-0.9,0.7-2.8,2.3-4.6,3.8c-1,0.8-1.1,1.7-1.3,2.8c-0.2,1.5-0.4,3-0.7,4.5c-0.6,2.6-1.2,5.1-2.3,7.5
	c-0.6,1.3-1.3,2.5-1.9,3.8c-0.4,0.8-2.2,0.9-2.8,0.2c-1.3-1.7-1.4-3.6-0.5-5.6c0.8-2,1.3-4,2.1-5.9c0.4-1,0.7-2,1.1-2.9
	c0.2-0.5,0.3-1,0.6-1.5c-0.6,0.3-1.1,0.5-1.6,0.9c-0.6,0.5-1.3,0.5-1.9,0.2c-0.8-0.5-1.3-1.1-1.4-2.1c-0.2-1.5,0.5-2.8,1-4.1
	c0.7-1.8,1.9-3.3,3.2-4.7c0.6-0.7,1.4-1.3,2.4-1.5c0.7-0.2,1.8,0.4,1.8,1.1c0.1,0.5-0.4,0.9-0.7,1.3c-0.3,0.5-0.7,1.1-1.3,1.4
	c-0.2,0.1-0.5,0.3-0.8,0.1c-0.3-0.3,0-0.5,0.2-0.7c0.1-0.1,0.1-0.2,0.1-0.5c-1.4,1.3-4.6,6.4-4.3,8.3c2.9-1.1,4.6-3.4,6.2-5.8
	c0.3-0.2,0.2-0.5,0.2-0.7c0.5-1.4,1.3-2.8,2.1-4.1c0.5-0.9,0.9-2,1.5-2.9c0.6-0.9,1-1.1,1.8-0.6c0.3,0.2,0.4,1.4,0.1,2
	c-0.7,1.1-1.4,2.4-2.1,3.6c-0.1,0.2-0.5,0.5-0.1,0.9c0.1,0.1-0.2,0.6-0.4,0.9c-0.6,0.9-1,1.8-1.1,2.7c1.4-1.1,2.2-1.1,3.7-2.3
	c0.6-0.5,1-1,1.7-1.2C68.3,25.1,68.5,25,68.6,24.9z M60.6,32.5c-0.5,0.6-0.6,1.2-0.9,1.8c-0.3,0.6-0.4,1.3-1,1.6
	c-0.1,0.1-0.1,0.1-0.1,0.2c0.4,0.5-0.1,0.9-0.3,1.1c-0.5,0.5-0.7,1.2-1,1.9c-0.4,1.1-0.6,2.3-1.1,3.3c-0.7,1.2-0.9,2.5-1,3.7
	c0,0.6-0.5,1.2,0.1,1.9C58.6,43.3,60.1,38.1,60.6,32.5z M58.3,43.4c-0.1,0.2-0.2,0.5-0.3,0.8C58.4,44,58.4,43.7,58.3,43.4z
	 M58.6,44.9c-0.3,0.1-0.4,0.3-0.3,0.7C58.4,45.2,58.7,45.2,58.6,44.9z M61.2,32c-0.1,0.2-0.1,0.3-0.1,0.5c-0.2,1.6-0.5,3.2-0.8,4.8
	c-0.2,1.1-0.7,2.2-0.8,3.4c-0.5,0.4-0.4,1-0.5,1.6c0.2-0.5,0.4-1.1,0.6-1.6C60.5,39.1,61.7,32.7,61.2,32z M61.4,31.4
	c-0.1,0-0.2,0.1-0.2,0.2s-0.1,0.2,0.1,0.2c0.1,0,0.2-0.1,0.2-0.2S61.5,31.4,61.4,31.4z M76.6,22.3c0,0.5-0.3,0.8-0.6,1.2
	c-0.9,1.6-1.9,3.3-2.6,5c-0.3,0.8-0.8,1.7-0.7,2.6c0,0.5,0.1,0.7,0.6,0.6c0.3,0,0.6,0,0.8-0.2c0,0,1.1-0.6,1.1-0.5
	c0.3,0.6-1,1.7-1.1,1.8c-0.7,0.6-1.4,0.1-2-0.3c-0.6-0.4-1-1-1-2c-0.7,1-1.3,1.8-2,2.6c-0.3,0.3-0.5,0.9-1.2,0.6
	c-0.8-0.3-1.7-0.5-1.8-1.5c-0.2-1.6,1.8-6.9,2.1-7.8c0.5-1,1.5-1.8,2.3-1.8c0.3,0,0.5,0.1,0.5,0.4c0.1,0.2,0.1,0.3-0.1,0.5
	c-0.6,0.9-1.3,1.7-1.7,2.6c-0.7,1.7-1.1,3.4-1.6,5.2c-0.1,0.2-0.1,0.4,0.1,0.5s0.3,0,0.5-0.2c1.3-1.5,2.5-3.1,3.7-4.8s2.2-3.4,3.2-5
	c0.4-0.6,0.9-0.5,1.5-0.3C76.8,21.7,76.6,22,76.6,22.3z M85.4,27.7c0.1,0.6-3,4.5-4.2,5.6c-1,0.9-3,2.1-4.2,2c-1-0.1-1.9-1.3-2-2.4
	c-0.1-0.9-0.2-1.3,0-2.8c0.2-1.4,1.6-4,2-4.7c0.6-1.1,1.3-2.4,2.1-3.4c0.7-1,2-1.4,3-1c0.9,0.3,0.9,1.1,1,1.8
	c0.2,1.3-0.8,3.7-2.3,4.5c-0.8,0.5-1.3,0.5-2.4,0.7c-0.3,0.1-0.5,0.1-0.7,0.1c-0.4,0.9-0.7,1.7-1,2.6c-0.3,1-0.2,1.9-0.1,2.8
	C76.8,34,77,34,77.4,34c1.4-0.3,2.2-1.2,3.3-2.1C81.4,31.3,85.2,27,85.4,27.7z M78.6,26.4c-0.1,0.3-0.3,0.6-0.4,0.9
	c0.5,0.2,2.2-1.1,2.4-1.4c0.5-0.9,0.8-1.7,1-2.7c0.1-0.3-0.2-0.6-0.2-1.1c-0.4,1-1.2,1.4-1.7,2.2C79.2,25,79,25.7,78.6,26.4z
	 M100.1,16.5c-2.1,0.3-3.6,1.5-5,2.9c-1.7,1.6-3,3.4-4.4,5.3c-1,1.3-1.6,2.8-2.4,4.2c-1,1.9-2.1,3.8-2.6,5.9
	c-0.3,1.3-0.6,2.4-1.1,3.6c-0.2,0.6-0.6,0.9-1.1,0.7c-0.8-0.2-1-0.7-0.8-1.4c0.4-1.9,1.3-3.7,1.3-5.8c-0.1-1.4,0.4-2.9,0.6-4.4
	c0.3-2.1,0.9-4.1,0.9-6.1c0-0.3,0.1-0.6,0.4-0.7c0.4-0.1,0.7-0.1,1,0.2c0.8,0.6,0.6,1.5,0.5,2.3c-0.3,1.8-0.6,3.5-1,5.3
	c1.3-2.1,2.4-4.2,3.8-6c1.8-2.2,3.4-4.6,6.1-5.9c1.1-0.5,2.2-0.5,3.3-0.4C99.8,16.1,100.1,16.1,100.1,16.5z M86.4,30.6L86.4,30.6
	L86.4,30.6C86.4,30.5,86.4,30.5,86.4,30.6c-0.2,0.1-0.3,0.2-0.3,0.5c-0.3,0.3-0.6,0.7-0.5,1.3c0-0.4,0.6-0.6,0.5-1.1
	C86.4,31.1,86.5,30.9,86.4,30.6z M88.9,26c0.1-0.2,0.1-0.4,0.2-0.6c-0.4,0.1-0.3,0.4-0.3,0.6c-0.3,0.2-0.5,0.5-0.5,0.8
	c-0.2,0.3-0.4,0.7-0.6,1.1c-0.2,0.1-0.1,0.3-0.2,0.5c-0.5,0.6-0.7,1.4-0.9,2.1c-0.1,0-0.1,0-0.1,0v0.1c0.1-0.1,0.1-0.1,0.1-0.1
	c0.5-0.3,0.5-0.9,0.9-1.3c0.2-0.2,0.5-0.3,0.3-0.6c0.3-0.2,0-0.3-0.1-0.5c0.4-0.2,0.9-0.3,0.9-1C88.6,26.7,89,26.5,88.9,26z
	 M92.6,20.5c-0.3,0.4-0.7,0.7-1,1.1c-0.2,0.3-0.5,0.5-0.6,0.8c-0.3,0.6-1.1,1-1.1,1.8c-0.5,0.2-0.5,0.6-0.7,1
	c0.3-0.2,0.7-0.2,0.7-0.6c0.6-1.1,1.4-2,2.1-3C92.2,21.2,92.7,21.1,92.6,20.5z M93.4,19.8C93.1,19.9,93,20,93,20.3
	C93.2,20.2,93.4,20.1,93.4,19.8z M103.1,26.7c-0.3,1-0.9,1.6-0.9,1.5c-0.1,0.1-0.1,0.1-0.2,0.2c-0.7,0.8-1.2,1.7-1.7,2.5
	c-0.4,0.8-1.1,1.3-1.7,1.8c-0.2,0.2-0.3,0.3-0.5,0.5c-0.9,0.8-1.6,0.7-2.6,0.1c-0.7-0.4-0.5-1.1-0.8-1.5C94.6,32,95,28,95.6,26.7
	s1.2-2.5,2-3.6c0.3-0.4,0.7-0.5,1.1-0.3c0.6,0.2,0.8,0.6,0.5,1.3c-0.3,0.9-1.1,1.5-1.4,2.5c-0.5,1.7-1.4,3.3-1.2,5.2
	c0,0.2-0.3,0.2-0.1,0.5c1.3-0.6,2.1-1.7,3.1-2.7c1.1-1.3,2.2-2.5,3.5-3.7C103.1,25.7,103.5,25.8,103.1,26.7z M100,17.5
	c0.1-0.8,0.5-1.4,0.8-2.1c0.2-0.6,0.7-0.9,1.3-1c0.4-0.1,1,0.6,0.9,1.2c-0.1,0.3-0.3,0.6-0.7,0.7c-0.7,0.3-1.3,0.9-1.9,1.4
	c-0.2,0.2-0.3,0.2-0.5,0.1C99.8,17.7,100,17.6,100,17.5z M122.1,10.2c0,0.3-0.2,0.5-0.4,0.6c-0.3,0.1-0.3-0.2-0.4-0.4
	c0-0.1,0-0.1,0-0.1c-0.3-0.9-3.1,2.2-4,3.3c-1.2,1.8-2,3.8-3.2,5.6c-0.9,1.4-1.5,2.9-2.2,4.5c-0.4,0.8-0.7,1.7-1.2,2.5
	c-0.5,0.7-2,3.7-2.1,4c-0.2,0.7-0.3,1.4-0.6,2c-0.3,0.5-0.5,1.1-0.8,1.7c-0.6,1-0.6,2.2-0.8,3.3c-0.8,3.4,0.9,4.9,0.6,5.2
	c-0.2,0.1-1.7-2-2-3c-0.4-1.4,0-2.7,0.1-4.1c0.1-0.9,0.4-1.8,0.7-2.6c0.1-0.2,0-0.5,0.4-0.5c0.2,0,0.3-0.3,0.2-0.4
	c-0.2-0.5-0.1-1,0.1-1.5c-1.1,1.5-2.1,3-3,4.6c0,0.1-0.2,0.1-0.2,0.1c-0.1,0.2,0.9,0.2,0.1,0.4c-0.3,0.1-0.5,0.2-0.7,0.4
	s-0.5-0.2-0.5-0.3c-0.2-1-1-1.7-1.1-2.7c-0.3-1.4,0.2-2.8,0.5-4.1c0.1-0.9,0.5-1.7,0.9-2.6c0.1-0.2,0.1-0.5,0.5-0.5
	c0.2,0,0.3-0.3,0.3-0.4c-0.3-1.2,0.6-2,1-3c0.3-0.9,0.9-1.8,1.5-2.6c0.1-0.1,0.2-0.1,0.2-0.1c0.6-1.7,1.4-3.2,2.3-4.7
	c1.1-1.8,2.2-3.6,3.6-5.3c1-1.4,2.2-2.6,3.5-3.9c0.8-0.9,1.6-1.6,2.8-2c1.7-0.5,2.9,1.1,2.7,2.4c0,0.3-0.2,0.5-0.5,0.5
	c-0.2,0.1-0.3-0.2-0.3-0.5V5.9c-0.2-0.9-0.5-1.1-1.3-0.7c-1.3,0.6-2.2,1.7-3.2,2.8c-1.4,1.7-2.4,3.6-3.7,5.3c-1,1.3-1.8,2.8-2.6,4.2
	c-0.4,0.8-0.8,1.7-1.4,2.4c-0.6,0.7-0.6,1.9-1.6,2.4c-0.2,0.1-0.2,0.3-0.1,0.5c0.3,0.3-0.1,0.5-0.2,0.7c-0.5-0.2-0.5,0.1-0.6,0.4
	c-0.2,0.6-0.4,1.4-0.7,1.9c-0.3,0.5-0.5,1.1-0.9,1.6c-0.7,0.9-0.9,2.1-1.1,3.2c-0.2,0.6-0.3,1.3-0.5,2c-0.1,0.5,0.2,0.9,0.2,1.4
	c1.2-2,2.2-3,3.7-4.5c0.5-0.6,1.4-1.8,2.2-2.6c0.2-0.3,0.3-0.6,0.5-0.9c0.1-0.1,0.2-0.1,0.2-0.2c0.5-1.7,1.1-3.3,1.9-4.9
	c1-1.9,2-3.8,3.1-5.6c1-1.4,2.1-2.8,3.2-4.1c0.7-0.9,1.5-1.8,2.6-2.2C121.2,8.3,122.2,8.9,122.1,10.2z M122.9,27.7
	c0.1,0.6-3,4.5-4.2,5.6c-1,0.9-3,2.1-4.2,2c-0.9-0.1-1.8-1.3-1.9-2.4c-0.1-0.9-0.2-1.3,0-2.8c0.2-1.4,1.6-4,2-4.7
	c0.6-1.1,1.3-2.4,2.1-3.4c0.7-1,2-1.4,3-1c0.9,0.3,0.9,1.1,1,1.8c0.2,1.3-0.8,3.7-2.3,4.5c-0.8,0.5-1.3,0.5-2.4,0.7
	c-0.3,0.1-0.5,0.1-0.7,0.1c-0.4,0.9-0.7,1.7-1,2.6c-0.3,1-0.2,1.9-0.1,2.8c0.1,0.4,0.3,0.5,0.6,0.4c1.4-0.3,2.2-1.2,3.3-2.1
	C118.8,31.3,122.7,27,122.9,27.7z M113.2,19.5c-0.1,0.2-0.1,0.2-0.3,0.6c-0.2,0.5-0.3,0.7-0.3,0.6c0.1,0,0.2-0.1,0.5-0.3
	C113.3,20.2,113.2,19.5,113.2,19.5z M116.1,26.4c-0.1,0.3-0.3,0.6-0.4,0.9c0.5,0.2,2.2-1.1,2.4-1.4c0.5-0.9,0.8-1.7,1-2.7
	c0.1-0.3-0.2-0.6-0.2-1.1c-0.4,1-1.2,1.4-1.7,2.2C116.7,25,116.4,25.7,116.1,26.4z"/>
<g>
	<path d="M139.1,36.2h-13v-0.8l7.1-8.2c1.3-1.6,2.3-2.9,3-4c0.6-1.1,0.9-2.2,0.9-3.1c0-1.6-0.4-2.8-1.3-3.7
		c-0.9-0.9-2.1-1.3-3.8-1.3c-1.8,0-3.1,0.5-4.1,1.6c-1,1-1.5,2.4-1.5,4h-0.7v-0.1c0-1.8,0.5-3.2,1.7-4.5c1.2-1.2,2.7-1.8,4.6-1.8
		c1.8,0,3.2,0.5,4.3,1.5s1.6,2.4,1.6,4.3c0,1.2-0.4,2.4-1.2,3.7c-0.8,1.2-1.9,2.7-3.3,4.4l-6.2,7.2v0.1H139L139.1,36.2L139.1,36.2z"
		/>
	<path d="M147.2,36.3h-0.8V15.1l-5.9,1.2v-0.7l6.7-1.2V36.3z"/>
</g>
</svg>
